<svg width="19" height="26" viewBox="0 0 19 26" fill="none" xmlns="http://www.w3.org/2000/svg">
<path d="M13.336 13.076C14.248 13.22 15.076 13.592 15.82 14.192C16.588 14.792 17.188 15.536 17.62 16.424C18.076 17.312 18.304 18.26 18.304 19.268C18.304 20.54 17.98 21.692 17.332 22.724C16.684 23.732 15.736 24.536 14.488 25.136C13.264 25.712 11.812 26 10.132 26H0.772V0.907999H9.772C11.476 0.907999 12.928 1.196 14.128 1.772C15.328 2.324 16.228 3.08 16.828 4.04C17.428 5 17.728 6.08 17.728 7.28C17.728 8.768 17.32 10.004 16.504 10.988C15.712 11.948 14.656 12.644 13.336 13.076ZM4.048 11.744H9.556C11.092 11.744 12.28 11.384 13.12 10.664C13.96 9.944 14.38 8.948 14.38 7.676C14.38 6.404 13.96 5.408 13.12 4.688C12.28 3.968 11.068 3.608 9.484 3.608H4.048V11.744ZM9.844 23.3C11.476 23.3 12.748 22.916 13.66 22.148C14.572 21.38 15.028 20.312 15.028 18.944C15.028 17.552 14.548 16.46 13.588 15.668C12.628 14.852 11.344 14.444 9.736 14.444H4.048V23.3H9.844Z" fill="black"/>
</svg>
